<svg width="16" height="16" viewBox="0 0 16 16" fill="none" xmlns="http://www.w3.org/2000/svg">
<g id="mi:search">
<path id="Vector" d="M6.73356 2.93462C5.72595 2.93462 4.75961 3.33489 4.04712 4.04737C3.33464 4.75986 2.93437 5.7262 2.93437 6.73381C2.93437 7.74142 3.33464 8.70775 4.04712 9.42024C4.75961 10.1327 5.72595 10.533 6.73356 10.533C7.74116 10.533 8.7075 10.1327 9.41999 9.42024C10.1325 8.70775 10.5327 7.74142 10.5327 6.73381C10.5327 5.7262 10.1325 4.75986 9.41999 4.04737C8.7075 3.33489 7.74116 2.93462 6.73356 2.93462ZM1.66797 6.73381C1.66808 5.92766 1.8606 5.13318 2.22951 4.41639C2.59843 3.69961 3.13309 3.08122 3.78906 2.61263C4.44503 2.14403 5.20337 1.83876 6.00104 1.72219C6.79872 1.60561 7.6127 1.6811 8.37534 1.94238C9.13797 2.20366 9.82724 2.64318 10.3858 3.22441C10.9445 3.80565 11.3563 4.51181 11.5871 5.28421C11.8179 6.05661 11.861 6.87295 11.7129 7.66537C11.5647 8.4578 11.2296 9.20342 10.7354 9.84028L14.1464 13.2513C14.2618 13.3707 14.3256 13.5307 14.3241 13.6967C14.3227 13.8627 14.2561 14.0215 14.1387 14.1389C14.0213 14.2563 13.8625 14.3229 13.6965 14.3244C13.5304 14.3258 13.3705 14.262 13.2511 14.1467L9.84003 10.7356C9.09124 11.317 8.19436 11.6765 7.25136 11.7734C6.30837 11.8703 5.3571 11.7007 4.50574 11.2838C3.65438 10.8669 2.93708 10.2194 2.43542 9.41508C1.93376 8.61074 1.66786 7.68177 1.66797 6.73381Z" fill="white"/>
</g>
</svg>
